# xmcd
#
# Track frame offsets: 
#        150
#        10572
#        25541
#        41051
#        51007
#        63344
#        82534
#        92784
#        107540
#        125039
#        139790
#        152476
#
# Disc length: 2329 seconds
#
# Revision: 3
# Processed by: cddbd v1.5.2PL0 Copyright (c) Steve Scherf et al.
# Submitted via: ExactAudioCopy v1.1
#
DISCID=8409170c
DTITLE=The Rolling Stones - Between The Buttons [UK] (Mono)
DYEAR=2016
DGENRE=Rock
TTITLE0=Yesterday’s Papers
TTITLE1=My Obsession
TTITLE2=Back Street Girl
TTITLE3=Connection
TTITLE4=She Smiled Sweetly
TTITLE5=Cool, Calm and Collected
TTITLE6=All Sold Out
TTITLE7=Please Go Home
TTITLE8=Who’s Been Sleeping Here?
TTITLE9=Complicated
TTITLE10=Miss Amanda Jones
TTITLE11=Something Happened To Me Yesterday
EXTD=
EXTT0=
EXTT1=
EXTT2=
EXTT3=
EXTT4=
EXTT5=
EXTT6=
EXTT7=
EXTT8=
EXTT9=
EXTT10=
EXTT11=
PLAYORDER=
